<svg width="30" height="52" viewBox="0 0 30 52" fill="none" xmlns="http://www.w3.org/2000/svg">
<path d="M29.0198 43.3401C28.7714 43.3511 28.5255 43.288 28.3155 43.1594C28.1054 43.0307 27.9413 42.8427 27.8453 42.6207C27.7494 42.3988 27.7263 42.1537 27.7792 41.9187C27.8321 41.6836 27.9584 41.47 28.1409 41.3067L28.224 40.9871C28.2131 40.9615 28.2021 40.9359 28.191 40.9104C27.9408 40.3386 27.5215 39.8511 26.9858 39.5091C26.4501 39.1671 25.8219 38.9859 25.1801 38.9882C24.5382 38.9905 23.9114 39.1762 23.3784 39.5221C22.8453 39.8679 22.4298 40.3584 22.184 40.932C21.2015 43.2212 19.9506 45.5143 19.6426 47.9348C19.507 49.0047 19.5642 50.0892 19.8117 51.1402C17.5041 46.2704 16.3059 40.9776 16.2982 35.6205C16.2977 34.2762 16.3749 32.933 16.5294 31.597C16.6571 30.5018 16.8343 29.4144 17.0609 28.3348C18.2978 22.477 20.9533 16.9865 24.8094 12.3143C26.6757 11.3291 28.1851 9.81418 29.134 7.97359C29.4778 7.31196 29.7208 6.60568 29.8554 5.8767C29.6448 5.90341 29.0615 2.80143 29.2203 2.61112C28.9269 2.1804 28.4018 1.96631 28.0814 1.54601C26.4877 -0.544289 24.292 -0.179309 23.1458 2.66124C20.6972 3.8568 20.6735 5.83955 22.1759 7.74651C23.1318 8.95973 23.2632 10.6014 24.1019 11.9002C24.0156 12.0071 23.9258 12.1106 23.8395 12.2175C22.2622 14.1796 20.8875 16.2866 19.735 18.5082C20.0153 16.0193 19.6808 13.5017 18.759 11.1623C17.8249 8.98214 16.0739 7.14598 14.5319 5.2612C12.6798 2.99729 8.88186 3.98528 8.55555 6.85514C8.55238 6.88293 8.54929 6.91073 8.5463 6.9385C8.77532 7.06349 8.99952 7.19615 9.21888 7.33651C9.49445 7.51462 9.70798 7.76911 9.83149 8.06663C9.955 8.36416 9.98273 8.69085 9.91105 9.00389C9.83936 9.31692 9.6716 9.60171 9.42975 9.82093C9.1879 10.0401 8.88323 10.1836 8.55568 10.2324L8.52215 10.2374C8.60373 11.036 8.74795 11.8274 8.95356 12.6048C6.97543 20.0055 11.2461 22.701 17.344 22.8221C17.4786 22.8889 17.6097 22.9557 17.7444 23.0191C16.5865 26.1936 15.8602 29.5002 15.5838 32.8558C15.4273 34.8355 15.4365 36.8243 15.6114 38.8026L15.601 38.7325C15.1592 36.5326 13.9462 34.5477 12.1668 33.1129C9.52406 31.0127 5.79029 30.2393 2.93919 28.5511C2.63619 28.3629 2.28388 28.2625 1.9238 28.2616C1.56372 28.2608 1.2109 28.3595 0.906952 28.5463C0.603004 28.7331 0.360611 29 0.20835 29.3157C0.0560885 29.6314 0.000311802 29.9826 0.0476064 30.3279C0.0514306 30.3525 0.0553217 30.3771 0.0592726 30.4016C0.484288 30.5691 0.898101 30.762 1.29832 30.9793C1.52735 31.1043 1.75154 31.237 1.9709 31.3773C2.24647 31.5554 2.45999 31.8099 2.5835 32.1074C2.70701 32.405 2.73473 32.7317 2.66304 33.0447C2.59135 33.3577 2.42361 33.6425 2.18176 33.8617C1.93991 34.081 1.63525 34.2244 1.3077 34.2732L1.27413 34.2782C1.24998 34.2816 1.22927 34.2849 1.20515 34.2882C1.93134 35.9657 2.95057 37.5097 4.21821 38.8526C5.45508 45.3132 10.7675 45.9261 16.4501 44.0448H16.4535C17.077 46.6659 17.9804 49.2173 19.1491 51.6577H28.7785C28.8131 51.5542 28.8441 51.4473 28.8752 51.3438C27.9839 51.398 27.089 51.3465 26.2107 51.1903C26.9251 50.3421 27.6396 49.4873 28.354 48.6392C28.37 48.6234 28.3849 48.6067 28.3989 48.5892C28.7613 48.1551 29.1272 47.7244 29.4895 47.2903L29.4897 47.2898C29.5091 45.9592 29.3512 44.6318 29.0202 43.3403L29.0198 43.3401Z" fill="#F2F2F2"/>
</svg>
