<svg width="24" height="64" viewBox="0 0 24 64" fill="none" xmlns="http://www.w3.org/2000/svg">
<path d="M13.7039 0.504395C18.5903 1.2645 22.07 5.84482 22.9956 10.5483C23.9212 15.2518 22.8388 20.0832 21.7606 24.7562C20.6434 29.5981 19.5262 34.44 18.409 39.2819C17.9131 41.4314 17.4171 43.5813 16.9873 45.744C16.5698 47.845 18.3184 50.5397 18.3385 52.6791C18.3754 56.6305 17.5823 59.8848 18.8798 63.6316C13.057 63.9349 7.22076 63.9048 1.40163 63.5416C0.818652 54.1669 0.26712 44.5343 3.25111 35.5974C4.83013 30.8683 7.35657 26.4841 9.07892 21.8021C11.5183 15.171 12.2945 8.09359 13.053 1.09352" fill="#414141"/>
</svg>
