<svg width="9" height="28" viewBox="0 0 9 28" fill="none" xmlns="http://www.w3.org/2000/svg">
<path d="M0.96116 26.0557C0.598265 25.4439 0.496463 24.7192 0.677427 24.0359C0.85839 23.3526 1.30782 22.7645 1.9301 22.3969C2.05781 22.3241 2.19154 22.2616 2.32989 22.2102L1.70682 1.68553L8.45666 0.0234375L5.88274 23.9355C6.05888 24.507 6.0345 25.1189 5.8134 25.6756C5.59229 26.2324 5.18689 26.7026 4.66048 27.013C4.35919 27.1868 4.02545 27.3015 3.67833 27.3506C3.33121 27.3997 2.97751 27.3821 2.63741 27.2989C2.29731 27.2157 1.97746 27.0685 1.69615 26.8658C1.41484 26.663 1.17757 26.4086 0.997886 26.1172C0.985348 26.0968 0.973111 26.0764 0.96116 26.0557Z" fill="#FFB6B6"/>
</svg>
