<svg width="75" height="72" viewBox="0 0 75 72" fill="none" xmlns="http://www.w3.org/2000/svg">
<path d="M27.811 71.8961C26.5786 71.8961 25.3631 71.6185 24.2609 71.0851C23.1586 70.5518 22.1999 69.7774 21.4606 68.8234L1.99017 43.708C1.36411 42.9012 0.908513 41.9829 0.649384 41.0057C0.390255 40.0285 0.332683 39.0115 0.479953 38.0127C0.627224 37.014 0.976452 36.0531 1.50769 35.185C2.03892 34.3168 2.74176 33.5585 3.57604 32.9532C4.41032 32.3479 5.3597 31.9076 6.36993 31.6573C7.38017 31.4071 8.43146 31.3519 9.46376 31.4948C10.4961 31.6377 11.4892 31.9761 12.3863 32.4904C13.2834 33.0047 14.067 33.685 14.6922 34.4924L27.4305 50.9222L60.1471 3.44658C61.3155 1.75288 63.1314 0.577408 65.1954 0.178577C67.2595 -0.220254 69.4028 0.190203 71.1541 1.31972C72.9055 2.44924 74.1215 4.20535 74.5348 6.20197C74.9481 8.19859 74.5249 10.2723 73.3583 11.9671L34.4173 68.4759C33.7129 69.4979 32.7654 70.3416 31.6544 70.9362C30.5434 71.5309 29.3012 71.8592 28.032 71.8936C27.9584 71.8949 27.8847 71.8961 27.811 71.8961Z" fill="#F2F2F2"/>
</svg>
