<svg width="50" height="82" viewBox="0 0 50 82" fill="none" xmlns="http://www.w3.org/2000/svg">
<path d="M47.9 0.920898L18.2429 3.91848L14.2758 16.8447L0.537109 38.2041C0.537109 38.2041 10.1237 53.8138 9.22358 53.6438C8.32349 53.4737 10.1227 57.7288 11.3828 57.4817C12.643 57.2347 13.9535 60.0091 13.0823 60.5023C12.2111 60.9956 15.7064 65.1665 15.7064 65.1665L21.0485 60.5278C22.1849 52.2359 20.812 44.8561 15.9207 38.7553L31.2261 22.7701L34.1283 21.6051L36.4321 80.9222L44.9532 81.0576C47.3044 69.3565 48.4855 58.8252 46.6477 51.3123C46.6477 51.3123 46.9117 28.743 47.9194 28.9898C48.9271 29.2366 48.0729 26.2964 48.0729 26.2964C48.0729 26.2964 47.1903 23.7923 48.2747 22.7535C49.3591 21.7147 48.682 15.6048 48.682 15.6048C50.4737 9.82272 49.9343 5.04854 47.9 0.920898Z" fill="#2F2E41"/>
</svg>
