<svg width="214" height="180" viewBox="0 0 214 180" fill="none" xmlns="http://www.w3.org/2000/svg">
<path d="M0.0957031 179.449H15.6346C18.2922 170.792 15.6488 150.333 19.1518 141.971C25.8724 125.937 34.4582 109.019 50.4832 101.191C57.3254 97.8478 64.7857 96.5421 72.4046 96.6132C82.9294 96.7097 93.7501 99.443 103.657 103.065C107.709 104.544 111.725 106.169 115.724 107.831C130.793 114.095 145.698 120.918 161.903 122.762C182.408 125.094 206.517 116.218 212.117 97.1009C216.392 82.4644 208.694 67.269 200.62 54.1972C192.547 41.1255 183.523 27.1392 184.997 12.0048C185.002 11.954 185.008 11.8981 185.018 11.8473C185.573 6.41131 188.928 2.50461 193.614 0H173.209C172.94 14.1183 181.383 26.5804 188.981 38.885C197.054 51.9517 204.752 67.1522 200.478 81.7887C194.877 100.901 148.502 78.4974 127.997 76.1604C122.206 75.5051 131.404 77.8369 125.883 76.1604C117.223 73.5339 116.263 97.6242 107.836 94.0883C102.59 91.8834 97.3377 89.6937 92.0171 87.748C89.8139 86.9402 87.5631 86.1832 85.2859 85.4821C85.2806 85.4821 85.2806 85.4821 85.2753 85.477C69.9848 80.793 53.2624 78.9691 39.1342 85.7412C39.0391 85.7869 38.9387 85.8327 38.8435 85.8784C22.8186 93.7022 14.2328 110.62 7.51214 126.653C1.95911 139.908 2.83256 165.468 0.0957031 179.449Z" fill="#F2F2F2"/>
</svg>
