<svg width="13" height="40" viewBox="0 0 13 40" fill="none" xmlns="http://www.w3.org/2000/svg">
<path d="M12.2107 1.29789C12.2107 1.29789 7.72662 -2.80273 3.32777 4.68072C-1.07107 12.1642 0.135218 29.8629 0.638794 30.831C1.14237 31.7991 1.55713 30.5103 1.10887 32.9949C0.744301 35.0157 2.23459 34.8403 1.6804 35.246C0.219028 36.3159 4.12042 36.6555 2.05519 37.5565C-0.0100343 38.4575 8.96427 39.1275 8.96427 39.1275C8.96427 39.1275 10.0939 38.4348 9.50118 35.563C9.16825 33.95 8.14019 33.3114 9.31433 32.6361C10.4885 31.9608 8.31721 29.5625 8.3442 29.0633C8.3712 28.564 12.586 17.8382 12.586 17.8382L12.2107 1.29789Z" fill="#414141"/>
</svg>
