<svg width="31" height="52" viewBox="0 0 31 52" fill="none" xmlns="http://www.w3.org/2000/svg">
<path d="M1.14709 43.3401C1.39547 43.3511 1.64136 43.288 1.85144 43.1594C2.06152 43.0307 2.22565 42.8427 2.32157 42.6207C2.41749 42.3988 2.44057 42.1537 2.38769 41.9187C2.33481 41.6836 2.20853 41.47 2.02595 41.3067L1.94287 40.9871C1.95381 40.9615 1.96481 40.9359 1.97588 40.9104C2.2261 40.3386 2.6454 39.8511 3.1811 39.5091C3.7168 39.1671 4.345 38.9859 4.98682 38.9882C5.62864 38.9905 6.25545 39.1762 6.78851 39.5221C7.32157 39.8679 7.73712 40.3584 7.98295 40.932C8.96544 43.2212 10.2163 45.5143 10.5243 47.9348C10.6599 49.0047 10.6027 50.0892 10.3552 51.1402C12.6628 46.2704 13.861 40.9776 13.8687 35.6205C13.8692 34.2762 13.792 32.933 13.6375 31.597C13.5098 30.5018 13.3326 29.4144 13.106 28.3348C11.8691 22.477 9.21364 16.9865 5.35753 12.3143C3.49118 11.3291 1.98182 9.81418 1.03288 7.97359C0.689097 7.31196 0.446131 6.60568 0.311523 5.8767C0.522049 5.90341 1.10535 2.80143 0.946562 2.61112C1.23996 2.1804 1.7651 1.96631 2.08553 1.54601C3.67919 -0.544289 5.87487 -0.179309 7.0211 2.66124C9.46971 3.8568 9.49342 5.83955 7.99096 7.74651C7.03509 8.95973 6.90376 10.6014 6.06505 11.9002C6.15135 12.0071 6.24109 12.1106 6.32737 12.2175C7.90469 14.1796 9.27942 16.2866 10.4319 18.5082C10.1516 16.0193 10.4861 13.5017 11.4079 11.1623C12.342 8.98214 14.093 7.14598 15.635 5.2612C17.4871 2.99729 21.2851 3.98528 21.6114 6.85514C21.6145 6.88293 21.6176 6.91073 21.6206 6.9385C21.3916 7.06349 21.1674 7.19615 20.948 7.33651C20.6725 7.51462 20.4589 7.76911 20.3354 8.06663C20.2119 8.36416 20.1842 8.69085 20.2559 9.00389C20.3276 9.31692 20.4953 9.60171 20.7372 9.82093C20.979 10.0401 21.2837 10.1836 21.6112 10.2324L21.6448 10.2374C21.5632 11.036 21.419 11.8274 21.2134 12.6048C23.1915 20.0055 18.9208 22.701 12.8229 22.8221C12.6883 22.8889 12.5572 22.9557 12.4225 23.0191C13.5804 26.1936 14.3067 29.5002 14.5832 32.8558C14.7397 34.8355 14.7304 36.8243 14.5555 38.8026L14.5659 38.7325C15.0077 36.5326 16.2207 34.5477 18.0001 33.1129C20.6429 31.0127 24.3766 30.2393 27.2277 28.5511C27.5308 28.3629 27.8831 28.2625 28.2431 28.2616C28.6032 28.2608 28.956 28.3595 29.26 28.5463C29.5639 28.7331 29.8063 29 29.9586 29.3157C30.1109 29.6314 30.1666 29.9826 30.1193 30.3279C30.1155 30.3525 30.1116 30.3771 30.1077 30.4016C29.6827 30.5691 29.2688 30.762 28.8686 30.9793C28.6396 31.1043 28.4154 31.237 28.196 31.3773C27.9205 31.5554 27.7069 31.8099 27.5834 32.1074C27.4599 32.405 27.4322 32.7317 27.5039 33.0447C27.5756 33.3577 27.7433 33.6425 27.9852 33.8617C28.227 34.081 28.5317 34.2244 28.8592 34.2732L28.8928 34.2782C28.917 34.2816 28.9377 34.2849 28.9618 34.2882C28.2356 35.9657 27.2164 37.5097 25.9487 38.8526C24.7119 45.3132 19.3994 45.9261 13.7169 44.0448H13.7134C13.0899 46.6659 12.1865 49.2173 11.0178 51.6577H1.38838C1.35382 51.5542 1.32278 51.4473 1.2917 51.3438C2.18302 51.398 3.07787 51.3465 3.95624 51.1903C3.24179 50.3421 2.52735 49.4873 1.8129 48.6392C1.79696 48.6234 1.78198 48.6067 1.76802 48.5892C1.40561 48.1551 1.03973 47.7244 0.677355 47.2903L0.677171 47.2898C0.657852 45.9592 0.81567 44.6318 1.14675 43.3403L1.14709 43.3401Z" fill="#F2F2F2"/>
</svg>
