<svg width="23" height="65" viewBox="0 0 23 65" fill="none" xmlns="http://www.w3.org/2000/svg">
<path d="M20.7285 0.667465C15.7953 0.283242 11.2909 3.93315 9.2372 8.28944C7.18353 12.6457 7.049 17.5876 6.94931 22.3746L6.63942 37.2548C6.59357 39.4567 6.54771 41.6591 6.43431 43.8587C6.37594 45.9991 6.09766 48.1286 5.60357 50.2157C4.59774 54.0455 2.38524 57.4583 0.205078 60.7999C5.78687 62.4321 11.4636 63.7437 17.2054 64.7277C20.0728 55.7552 22.9731 46.5248 22.2682 37.158C21.8952 32.2015 20.5171 27.3622 19.9933 22.4185C19.2515 15.4167 20.2347 8.36338 21.2162 1.38928" fill="#414141"/>
</svg>
