<svg width="7" height="28" viewBox="0 0 7 28" fill="none" xmlns="http://www.w3.org/2000/svg">
<path d="M6.32202 26.4904C6.71931 25.8989 6.86235 25.1808 6.7207 24.4888C6.57905 23.7969 6.1639 23.1857 5.56358 22.7854C5.44023 22.7058 5.31028 22.6363 5.17507 22.5776L6.96971 2.1176L0.325195 0.097168L1.52914 24.1103C1.32062 24.6716 1.31002 25.2838 1.49898 25.8515C1.68795 26.4192 2.06585 26.9104 2.57372 27.2484C2.86462 27.4381 3.19128 27.5705 3.53506 27.638C3.87885 27.7056 4.23301 27.707 4.57734 27.6421C4.92168 27.5772 5.24945 27.4474 5.54191 27.2599C5.83437 27.0725 6.08581 26.8312 6.28187 26.5498C6.29554 26.5302 6.30891 26.5104 6.32202 26.4904Z" fill="#FFB6B6"/>
</svg>
