<svg width="39" height="65" viewBox="0 0 39 65" fill="none" xmlns="http://www.w3.org/2000/svg">
<path d="M9.09766 7.219L17.2964 5.16366L21.1235 0.0571289L30.2124 1.13805L32.1471 8.1034L38.6176 11.7369C38.6176 11.7369 35.0413 48.3316 35.892 50.341C36.7427 52.3503 39.7929 52.1845 37.1879 54.7747C34.5829 57.365 34.2379 56.3216 34.8423 59.1416C35.4468 61.9617 39.8533 64.9461 34.8423 64.9164C29.8314 64.8868 -0.405326 64.469 0.458582 61.1259C1.32249 57.7828 1.30888 58.6318 2.61155 56.5358C3.91421 54.4398 4.79093 55.611 4.35257 52.5181C3.91421 49.4252 4.34616 47.3358 4.34616 45.6642C4.34616 43.9927 5.79346 28.8033 5.79346 28.8033L9.09766 7.219Z" fill="#E6E6E6"/>
</svg>
