<svg width="13" height="40" viewBox="0 0 13 40" fill="none" xmlns="http://www.w3.org/2000/svg">
<path d="M1.46811 1.70414C1.46811 1.70414 6.17966 -2.15047 10.1443 5.55673C14.1089 13.2639 11.8933 30.8711 11.3352 31.8108C10.7771 32.7505 10.4366 31.4415 10.7422 33.9463C10.9908 35.9835 9.51282 35.7287 10.043 36.1634C11.441 37.3097 7.52617 37.4403 9.53675 38.4503C11.5473 39.4604 2.54849 39.6495 2.54849 39.6495C2.54849 39.6495 1.4601 38.8975 2.21601 36.0617C2.64058 34.469 3.70358 33.8863 2.5698 33.1493C1.43602 32.4123 3.74097 30.1337 3.74254 29.6338C3.74411 29.1338 0.148438 18.1991 0.148438 18.1991L1.46811 1.70414Z" fill="#414141"/>
</svg>
