<svg width="9" height="15" viewBox="0 0 9 15" fill="none" xmlns="http://www.w3.org/2000/svg">
<path d="M6.5 6.5C5.94772 6.5 5.5 6.94772 5.5 7.5C5.5 8.05228 5.94772 8.5 6.5 8.5L6.5 6.5ZM8.20711 8.20711C8.59763 7.81658 8.59763 7.18342 8.20711 6.79289L1.84314 0.428933C1.45262 0.0384087 0.819455 0.0384088 0.428931 0.428933C0.0384066 0.819458 0.0384067 1.45262 0.428931 1.84315L6.08579 7.5L0.428933 13.1569C0.0384089 13.5474 0.038409 14.1805 0.428933 14.5711C0.819458 14.9616 1.45262 14.9616 1.84315 14.5711L8.20711 8.20711ZM6.5 8.5L7.5 8.5L7.5 6.5L6.5 6.5L6.5 8.5Z" fill="#414141"/>
</svg>
