<svg width="32" height="32" viewBox="0 0 32 32" fill="none" xmlns="http://www.w3.org/2000/svg">
<path fill-rule="evenodd" clip-rule="evenodd" d="M12.4802 19.4174L5.29357 16.5147C3.84691 15.9307 2.92957 14.4947 3.00424 12.9374C3.08024 11.38 4.13224 10.04 5.62824 9.59871L25.3736 3.76404C26.1749 3.52804 27.0416 3.74804 27.6309 4.33871C28.2216 4.92937 28.4429 5.79471 28.2056 6.59604C26.9722 10.772 24.2829 19.8747 22.3629 26.372C21.9216 27.8667 20.5842 28.9187 19.0282 28.996C17.4722 29.0734 16.0376 28.1587 15.4496 26.716L12.4802 19.4174ZM14.4442 18.94L17.3029 25.9614C17.5696 26.6174 18.2216 27.0334 18.9296 26.9974C19.6362 26.9627 20.2442 26.484 20.4442 25.8054C22.3642 19.308 25.0536 10.2054 26.2882 6.02937C26.3162 5.93071 26.2896 5.82537 26.2176 5.75204C26.1456 5.68004 26.0389 5.65337 25.9402 5.68271L6.19491 11.516C5.51491 11.7174 5.03624 12.3267 5.00157 13.0347C4.96824 13.7427 5.38557 14.3947 6.04291 14.66L13.0602 17.4947L17.8722 12.6827C18.2629 12.2934 18.8962 12.2934 19.2869 12.6827C19.6776 13.0734 19.6776 13.7067 19.2869 14.0974L14.4442 18.94Z" fill="white"/>
</svg>
